<svg xmlns="http://www.w3.org/2000/svg" xmlns:xlink="http://www.w3.org/1999/xlink" version="1.1" data-diagram-type="CLASS" style="width:1487px;height:890px;background:#FFFFFF;" width="1487px" height="890px" viewBox="0 0 1487 890" zoomAndPan="magnify" preserveAspectRatio="none" contentStyleType="text/css"><?plantuml 1.2026.7beta8?><defs/><g font-family="sans-serif" lengthAdjust="spacing"><!--class УПД--><g class="entity" data-qualified-name="..." id="ent0001" data-source-line="3"><rect x="584.93" y="7" width="267.623" height="259.859" fill="#F1F1F1" style="stroke:#181818;stroke-width:0.5;" rx="2.5" ry="2.5"/><ellipse cx="699.493" cy="23" rx="11" ry="11" fill="#ADD1B2" style="stroke:#181818;stroke-width:1;"/><path d="M702.462,28.641 Q701.884,28.938 701.243,29.078 Q700.603,29.234 699.9,29.234 Q697.4,29.234 696.072,27.594 Q694.759,25.938 694.759,22.813 Q694.759,19.688 696.072,18.031 Q697.4,16.375 699.9,16.375 Q700.603,16.375 701.243,16.531 Q701.9,16.688 702.462,16.984 L702.462,19.703 Q701.837,19.125 701.243,18.859 Q700.65,18.578 700.025,18.578 Q698.681,18.578 697.993,19.656 Q697.306,20.719 697.306,22.813 Q697.306,24.906 697.993,25.984 Q698.681,27.047 700.025,27.047 Q700.65,27.047 701.243,26.781 Q701.837,26.5 702.462,25.922 L702.462,28.641 Z " fill="#000"/><text x="719.993" y="27.847" fill="#000" font-size="14" textLength="29.996">УПД</text><line x1="585.93" y1="39" x2="851.553" y2="39" style="stroke:#181818;stroke-width:0.5;"/><text x="590.93" y="55.995" fill="#000" font-size="14" textLength="108.24">+Номер: string</text><text x="590.93" y="72.292" fill="#000" font-size="14" textLength="90.61">+Дата: Date</text><text x="590.93" y="88.589" fill="#000" font-size="14" textLength="123.854">+Сумма: decimal</text><text x="590.93" y="104.886" fill="#000" font-size="14" textLength="107.331">+НДС: decimal</text><text x="590.93" y="121.183" fill="#000" font-size="14" textLength="130.99">+Строка5а: string</text><text x="590.93" y="137.479" fill="#000" font-size="14" textLength="131.045">+Строка5б: string</text><text x="590.93" y="153.776" fill="#000" font-size="14" textLength="87.89">+Тип: string</text><line x1="585.93" y1="161.078" x2="851.553" y2="161.078" style="stroke:#181818;stroke-width:0.5;"/><text x="590.93" y="178.073" fill="#000" font-size="14" textLength="255.623">+ПосчитатьСуммуСтрок(): decimal</text><text x="590.93" y="194.37" fill="#000" font-size="14" textLength="189.232">+ОпределитьТип(): string</text><text x="590.93" y="210.667" fill="#000" font-size="14" textLength="226.283">+ПолучитьКлючДубля(): string</text><text x="590.93" y="226.964" fill="#000" font-size="14" textLength="148.565">+ЕстьТовары(): bool</text><text x="590.93" y="243.261" fill="#000" font-size="14" textLength="144.594">+ЕстьУслуги(): bool</text><text x="590.93" y="259.558" fill="#000" font-size="14" textLength="203.547">+ИзДругогоПериода(): bool</text></g><!--class СтрокаУПД--><g class="entity" data-qualified-name="........." id="ent0002" data-source-line="21"><rect x="7" y="343.86" width="291.474" height="259.859" fill="#F1F1F1" style="stroke:#181818;stroke-width:0.5;" rx="2.5" ry="2.5"/><ellipse cx="107.28" cy="359.86" rx="11" ry="11" fill="#ADD1B2" style="stroke:#181818;stroke-width:1;"/><path d="M110.249,365.501 Q109.67,365.798 109.03,365.938 Q108.389,366.094 107.686,366.094 Q105.186,366.094 103.858,364.454 Q102.545,362.798 102.545,359.673 Q102.545,356.548 103.858,354.891 Q105.186,353.235 107.686,353.235 Q108.389,353.235 109.03,353.391 Q109.686,353.548 110.249,353.844 L110.249,356.563 Q109.624,355.985 109.03,355.719 Q108.436,355.438 107.811,355.438 Q106.467,355.438 105.78,356.516 Q105.092,357.579 105.092,359.673 Q105.092,361.766 105.78,362.844 Q106.467,363.907 107.811,363.907 Q108.436,363.907 109.03,363.641 Q109.624,363.36 110.249,362.782 L110.249,365.501 Z " fill="#000"/><text x="127.78" y="364.707" fill="#000" font-size="14" textLength="82.414">СтрокаУПД</text><line x1="8" y1="375.86" x2="297.474" y2="375.86" style="stroke:#181818;stroke-width:0.5;"/><text x="13" y="392.855" fill="#000" font-size="14" textLength="139.241">+НомерСтроки: int</text><text x="13" y="409.152" fill="#000" font-size="14" textLength="178.719">+НазваниеИзXML: string</text><text x="13" y="425.449" fill="#000" font-size="14" textLength="154.663">+Содержание: string</text><text x="13" y="441.746" fill="#000" font-size="14" textLength="162.196">+Количество: decimal</text><text x="13" y="458.043" fill="#000" font-size="14" textLength="125.07">+Единица: string</text><text x="13" y="474.339" fill="#000" font-size="14" textLength="113.306">+Цена: decimal</text><text x="13" y="490.636" fill="#000" font-size="14" textLength="123.854">+Сумма: decimal</text><text x="13" y="506.933" fill="#000" font-size="14" textLength="144.122">+СтавкаНДС: string</text><text x="13" y="523.23" fill="#000" font-size="14" textLength="155.094">+СуммаНДС: decimal</text><text x="13" y="539.527" fill="#000" font-size="14" textLength="87.89">+Тип: string</text><line x1="8" y1="546.829" x2="297.474" y2="546.829" style="stroke:#181818;stroke-width:0.5;"/><text x="13" y="563.824" fill="#000" font-size="14" textLength="189.232">+ОпределитьТип(): string</text><text x="13" y="580.121" fill="#000" font-size="14" textLength="279.474">+ВернутьСодержаниеСтроки(): string</text><text x="13" y="596.418" fill="#000" font-size="14" textLength="188.433">+ПроверитьСумму(): bool</text></g><!--class Контрагент--><g class="entity" data-qualified-name=".........." id="ent0003" data-source-line="38"><rect x="333.06" y="384.6" width="221.344" height="178.375" fill="#F1F1F1" style="stroke:#181818;stroke-width:0.5;" rx="2.5" ry="2.5"/><ellipse cx="396.204" cy="400.6" rx="11" ry="11" fill="#ADD1B2" style="stroke:#181818;stroke-width:1;"/><path d="M399.172,406.241 Q398.594,406.537 397.954,406.678 Q397.313,406.834 396.61,406.834 Q394.11,406.834 392.782,405.194 Q391.469,403.537 391.469,400.412 Q391.469,397.287 392.782,395.631 Q394.11,393.975 396.61,393.975 Q397.313,393.975 397.954,394.131 Q398.61,394.287 399.172,394.584 L399.172,397.303 Q398.547,396.725 397.954,396.459 Q397.36,396.178 396.735,396.178 Q395.391,396.178 394.704,397.256 Q394.016,398.319 394.016,400.412 Q394.016,402.506 394.704,403.584 Q395.391,404.647 396.735,404.647 Q397.36,404.647 397.954,404.381 Q398.547,404.1 399.172,403.522 L399.172,406.241 Z " fill="#000"/><text x="416.704" y="405.447" fill="#000" font-size="14" textLength="86.557">Контрагент</text><line x1="334.06" y1="416.6" x2="553.404" y2="416.6" style="stroke:#181818;stroke-width:0.5;"/><text x="339.06" y="433.595" fill="#000" font-size="14" textLength="131.332">+Название: string</text><text x="339.06" y="449.892" fill="#000" font-size="14" textLength="92.613">+ИНН: string</text><text x="339.06" y="466.189" fill="#000" font-size="14" textLength="92.08">+КПП: string</text><text x="339.06" y="482.486" fill="#000" font-size="14" textLength="125.624">+ТипЛица: string</text><text x="339.06" y="498.783" fill="#000" font-size="14" textLength="129.117">+RefKey1C: string</text><line x1="334.06" y1="506.084" x2="553.404" y2="506.084" style="stroke:#181818;stroke-width:0.5;"/><text x="339.06" y="523.079" fill="#000" font-size="14" textLength="172.491">+ПроверитьИНН(): bool</text><text x="339.06" y="539.376" fill="#000" font-size="14" textLength="171.958">+ПроверитьКПП(): bool</text><text x="339.06" y="555.673" fill="#000" font-size="14" textLength="209.344">+ПолучитьКлючВ1С(): string</text></g><!--class Номенклатура--><g class="entity" data-qualified-name="............" id="ent0004" data-source-line="50"><rect x="37.2" y="680.72" width="231.078" height="194.672" fill="#F1F1F1" style="stroke:#181818;stroke-width:0.5;" rx="2.5" ry="2.5"/><ellipse cx="94.834" cy="696.72" rx="11" ry="11" fill="#ADD1B2" style="stroke:#181818;stroke-width:1;"/><path d="M97.803,702.361 Q97.224,702.658 96.584,702.798 Q95.943,702.954 95.24,702.954 Q92.74,702.954 91.412,701.314 Q90.099,699.658 90.099,696.533 Q90.099,693.408 91.412,691.751 Q92.74,690.095 95.24,690.095 Q95.943,690.095 96.584,690.251 Q97.24,690.408 97.803,690.704 L97.803,693.423 Q97.178,692.845 96.584,692.579 Q95.99,692.298 95.365,692.298 Q94.021,692.298 93.334,693.376 Q92.646,694.439 92.646,696.533 Q92.646,698.626 93.334,699.704 Q94.021,700.767 95.365,700.767 Q95.99,700.767 96.584,700.501 Q97.178,700.22 97.803,699.642 L97.803,702.361 Z " fill="#000"/><text x="115.334" y="701.567" fill="#000" font-size="14" textLength="107.311">Номенклатура</text><line x1="38.2" y1="712.72" x2="267.278" y2="712.72" style="stroke:#181818;stroke-width:0.5;"/><text x="43.2" y="729.715" fill="#000" font-size="14" textLength="129.117">+RefKey1C: string</text><text x="43.2" y="746.012" fill="#000" font-size="14" textLength="150.015">+Название1С: string</text><text x="43.2" y="762.309" fill="#000" font-size="14" textLength="107.953">+Код1С: string</text><text x="43.2" y="778.606" fill="#000" font-size="14" textLength="87.89">+Тип: string</text><text x="43.2" y="794.903" fill="#000" font-size="14" textLength="138.052">+СчетУчета: string</text><text x="43.2" y="811.199" fill="#000" font-size="14" textLength="206.336">+ЕдиницаИзмерения: string</text><line x1="38.2" y1="818.501" x2="267.278" y2="818.501" style="stroke:#181818;stroke-width:0.5;"/><text x="43.2" y="835.496" fill="#000" font-size="14" textLength="190.313">+ПроверитьRefKey(): bool</text><text x="43.2" y="851.793" fill="#000" font-size="14" textLength="137.621">+ЭтоУслуга(): bool</text><text x="43.2" y="868.09" fill="#000" font-size="14" textLength="219.078">+ПолучитьСчетУчета(): string</text></g><!--class Договор--><g class="entity" data-qualified-name="......." id="ent0005" data-source-line="63"><rect x="588.94" y="400.9" width="367.592" height="145.781" fill="#F1F1F1" style="stroke:#181818;stroke-width:0.5;" rx="2.5" ry="2.5"/><ellipse cx="737.922" cy="416.9" rx="11" ry="11" fill="#ADD1B2" style="stroke:#181818;stroke-width:1;"/><path d="M740.891,422.541 Q740.313,422.838 739.672,422.978 Q739.032,423.134 738.329,423.134 Q735.829,423.134 734.501,421.494 Q733.188,419.838 733.188,416.713 Q733.188,413.588 734.501,411.931 Q735.829,410.275 738.329,410.275 Q739.032,410.275 739.672,410.431 Q740.329,410.588 740.891,410.884 L740.891,413.603 Q740.266,413.025 739.672,412.759 Q739.079,412.478 738.454,412.478 Q737.11,412.478 736.422,413.556 Q735.735,414.619 735.735,416.713 Q735.735,418.806 736.422,419.884 Q737.11,420.947 738.454,420.947 Q739.079,420.947 739.672,420.681 Q740.266,420.4 740.891,419.822 L740.891,422.541 Z " fill="#000"/><text x="758.422" y="421.747" fill="#000" font-size="14" textLength="61.127">Договор</text><line x1="589.94" y1="432.9" x2="955.532" y2="432.9" style="stroke:#181818;stroke-width:0.5;"/><text x="594.94" y="449.895" fill="#000" font-size="14" textLength="129.117">+RefKey1C: string</text><text x="594.94" y="466.192" fill="#000" font-size="14" textLength="131.332">+Название: string</text><text x="594.94" y="482.489" fill="#000" font-size="14" textLength="108.24">+Номер: string</text><text x="594.94" y="498.786" fill="#000" font-size="14" textLength="90.61">+Дата: Date</text><text x="594.94" y="515.083" fill="#000" font-size="14" textLength="87.89">+Тип: string</text><line x1="589.94" y1="522.384" x2="955.532" y2="522.384" style="stroke:#181818;stroke-width:0.5;"/><text x="594.94" y="539.379" fill="#000" font-size="14" textLength="355.592">+СовпадаетСоСтрокой5а(строка5а: string): bool</text></g><!--class Склад--><g class="entity" data-qualified-name="....." id="ent0006" data-source-line="73"><rect x="991.16" y="409.05" width="243.157" height="129.484" fill="#F1F1F1" style="stroke:#181818;stroke-width:0.5;" rx="2.5" ry="2.5"/><ellipse cx="1085.769" cy="425.05" rx="11" ry="11" fill="#ADD1B2" style="stroke:#181818;stroke-width:1;"/><path d="M1088.738,430.691 Q1088.16,430.988 1087.519,431.128 Q1086.879,431.284 1086.176,431.284 Q1083.676,431.284 1082.347,429.644 Q1081.035,427.988 1081.035,424.863 Q1081.035,421.738 1082.347,420.081 Q1083.676,418.425 1086.176,418.425 Q1086.879,418.425 1087.519,418.581 Q1088.176,418.738 1088.738,419.034 L1088.738,421.753 Q1088.113,421.175 1087.519,420.909 Q1086.926,420.628 1086.301,420.628 Q1084.957,420.628 1084.269,421.706 Q1083.582,422.769 1083.582,424.863 Q1083.582,426.956 1084.269,428.034 Q1084.957,429.097 1086.301,429.097 Q1086.926,429.097 1087.519,428.831 Q1088.113,428.55 1088.738,427.972 L1088.738,430.691 Z " fill="#000"/><text x="1106.269" y="429.897" fill="#000" font-size="14" textLength="45.438">Склад</text><line x1="992.16" y1="441.05" x2="1233.317" y2="441.05" style="stroke:#181818;stroke-width:0.5;"/><text x="997.16" y="458.045" fill="#000" font-size="14" textLength="129.117">+RefKey1C: string</text><text x="997.16" y="474.342" fill="#000" font-size="14" textLength="131.332">+Название: string</text><text x="997.16" y="490.639" fill="#000" font-size="14" textLength="231.157">+ИсточникОпределения: string</text><text x="997.16" y="506.936" fill="#000" font-size="14" textLength="115.609">+Score: decimal</text><line x1="992.16" y1="514.238" x2="1233.317" y2="514.238" style="stroke:#181818;stroke-width:0.5;"/><text x="997.16" y="531.233" fill="#000" font-size="14" textLength="186.402">+ПроверитьСклад(): bool</text></g><!--class Документ1С--><g class="entity" data-qualified-name="........1." id="ent0007" data-source-line="82"><rect x="1269.22" y="384.6" width="203.037" height="178.375" fill="#F1F1F1" style="stroke:#181818;stroke-width:0.5;" rx="2.5" ry="2.5"/><ellipse cx="1320.783" cy="400.6" rx="11" ry="11" fill="#ADD1B2" style="stroke:#181818;stroke-width:1;"/><path d="M1323.752,406.241 Q1323.174,406.537 1322.533,406.678 Q1321.893,406.834 1321.19,406.834 Q1318.69,406.834 1317.362,405.194 Q1316.049,403.537 1316.049,400.412 Q1316.049,397.287 1317.362,395.631 Q1318.69,393.975 1321.19,393.975 Q1321.893,393.975 1322.533,394.131 Q1323.19,394.287 1323.752,394.584 L1323.752,397.303 Q1323.127,396.725 1322.533,396.459 Q1321.94,396.178 1321.315,396.178 Q1319.971,396.178 1319.283,397.256 Q1318.596,398.319 1318.596,400.412 Q1318.596,402.506 1319.283,403.584 Q1319.971,404.647 1321.315,404.647 Q1321.94,404.647 1322.533,404.381 Q1323.127,404.1 1323.752,403.522 L1323.752,406.241 Z " fill="#000"/><text x="1341.283" y="405.447" fill="#000" font-size="14" textLength="91.41">Документ1С</text><line x1="1270.22" y1="416.6" x2="1471.257" y2="416.6" style="stroke:#181818;stroke-width:0.5;"/><text x="1275.22" y="433.595" fill="#000" font-size="14" textLength="129.117">+RefKey1C: string</text><text x="1275.22" y="449.892" fill="#000" font-size="14" textLength="108.24">+Номер: string</text><text x="1275.22" y="466.189" fill="#000" font-size="14" textLength="90.61">+Дата: Date</text><text x="1275.22" y="482.486" fill="#000" font-size="14" textLength="169.196">+ТипДокумента: string</text><text x="1275.22" y="498.783" fill="#000" font-size="14" textLength="104.002">+Создан: bool</text><text x="1275.22" y="515.079" fill="#000" font-size="14" textLength="119.267">+Payload: object</text><line x1="1270.22" y1="522.381" x2="1471.257" y2="522.381" style="stroke:#181818;stroke-width:0.5;"/><text x="1275.22" y="539.376" fill="#000" font-size="14" textLength="191.037">+СобратьPayload(): object</text><text x="1275.22" y="555.673" fill="#000" font-size="14" textLength="150.466">+СоздатьВ1С(): bool</text></g><!--reverse link УПД to СтрокаУПД--><g class="link" data-entity-1="ent0001" data-entity-2="ent0002" id="lnk8" data-source-line="94" data-link-type="composition"><path d="M574.039,203.296 C493.819,241.376 401.85,288.56 315.74,343.86 C310.12,347.47 304.46,351.22 298.8,355.09" style="stroke:#181818;stroke-width:1;" fill="none" id="УПД-backto-СтрокаУПД" codeLine="94"/><polygon points="584.88,198.15,577.744,197.109,574.039,203.296,581.175,204.337,584.88,198.15" fill="#181818" style="stroke:#181818;stroke-width:1;stroke-linejoin:miter;stroke-miterlimit:10;"/><text x="391.74" y="309.927" fill="#000" font-size="13" textLength="43.101">Имеет</text><text x="568.487" y="198.495" fill="#000" font-size="13">1</text><text x="306.433" y="346.047" fill="#000" font-size="13" textLength="23.036">1..*</text></g><!--link УПД to Контрагент--><g class="link" data-entity-1="ent0001" data-entity-2="ent0003" id="lnk9" data-source-line="95" data-link-type="dependency"><path d="M584.44,229.26 C560.53,249.59 537.35,272.43 518.74,296.86 C498.91,322.87 485.09,350.265 473.31,379.845" style="stroke:#181818;stroke-width:1;" fill="none" id="УПД-to-Контрагент" codeLine="95"/><polygon points="471.46,384.49,478.506,377.609,473.31,379.845,471.074,374.649,471.46,384.49" fill="#181818" style="stroke:#181818;stroke-width:1;stroke-linejoin:miter;stroke-miterlimit:10;"/><text x="519.74" y="309.927" fill="#000" font-size="13" textLength="76.623">Поставщик</text><text x="568.452" y="231.235" fill="#000" font-size="13">1</text><text x="465.436" y="373.546" fill="#000" font-size="13">1</text></g><!--link УПД to Контрагент--><g class="link" data-entity-1="ent0001" data-entity-2="ent0003" id="lnk10" data-source-line="96" data-link-type="dependency"><path d="M636.08,267.29 C624.66,283.31 612.72,299.19 600.74,313.86 C598.96,316.04 570.077,345.316 535.167,380.586" style="stroke:#181818;stroke-width:1;" fill="none" id="УПД-to-Контрагент-1" codeLine="96"/><polygon points="531.65,384.14,540.824,380.557,535.167,380.586,535.138,374.93,531.65,384.14" fill="#181818" style="stroke:#181818;stroke-width:1;stroke-linejoin:miter;stroke-miterlimit:10;"/><text x="612.74" y="309.927" fill="#000" font-size="13" textLength="81.282">Покупатель</text><text x="623.348" y="286.9" fill="#000" font-size="13">1</text><text x="530.348" y="373.471" fill="#000" font-size="13">1</text></g><!--link УПД to Договор--><g class="link" data-entity-1="ent0001" data-entity-2="ent0005" id="lnk11" data-source-line="97" data-link-type="dependency"><path d="M739.54,266.92 C746.85,312.24 754.005,356.594 760.285,395.584" style="stroke:#181818;stroke-width:1;" fill="none" id="УПД-to-Договор" codeLine="97"/><polygon points="761.08,400.52,763.598,390.998,760.285,395.584,755.7,392.271,761.08,400.52" fill="#181818" style="stroke:#181818;stroke-width:1;stroke-linejoin:miter;stroke-miterlimit:10;"/><text x="732.519" y="286.939" fill="#000" font-size="13">1</text><text x="734.864" y="389.895" fill="#000" font-size="13" textLength="24.807">0..1</text></g><!--link УПД to Склад--><g class="link" data-entity-1="ent0001" data-entity-2="ent0006" id="lnk12" data-source-line="98" data-link-type="dependency"><path d="M852.84,243.38 C892.25,275.13 935.13,310.43 973.74,343.86 C997.5,364.43 1019.223,384.19 1041.703,405.15" style="stroke:#181818;stroke-width:1;" fill="none" id="УПД-to-Склад" codeLine="98"/><polygon points="1045.36,408.56,1041.505,399.497,1041.703,405.15,1036.05,405.348,1045.36,408.56" fill="#181818" style="stroke:#181818;stroke-width:1;stroke-linejoin:miter;stroke-miterlimit:10;"/><text x="860.4" y="245.862" fill="#000" font-size="13">1</text><text x="1013.216" y="398.133" fill="#000" font-size="13" textLength="24.807">0..1</text></g><!--link УПД to Документ1С--><g class="link" data-entity-1="ent0001" data-entity-2="ent0007" id="lnk13" data-source-line="99" data-link-type="dependency"><path d="M852.78,171.26 C965.76,203.5 1128.27,259.92 1251.74,343.86 C1268.49,355.25 1281.049,365.87 1295.669,380.61" style="stroke:#181818;stroke-width:1;" fill="none" id="УПД-to-Документ1С" codeLine="99"/><polygon points="1299.19,384.16,1295.692,374.953,1295.669,380.61,1290.012,380.587,1299.19,384.16" fill="#181818" style="stroke:#181818;stroke-width:1;stroke-linejoin:miter;stroke-miterlimit:10;"/><text x="1199.74" y="309.927" fill="#000" font-size="13" textLength="56.469">Создает</text><text x="860.768" y="169.882" fill="#000" font-size="13">1</text><text x="1268.564" y="373.492" fill="#000" font-size="13" textLength="24.807">0..1</text></g><!--link СтрокаУПД to Номенклатура--><g class="link" data-entity-1="ent0002" data-entity-2="ent0004" id="lnk14" data-source-line="100" data-link-type="dependency"><path d="M152.74,603.85 C152.74,629.53 152.74,651.07 152.74,675.43" style="stroke:#181818;stroke-width:1;" fill="none" id="СтрокаУПД-to-Номенклатура" codeLine="100"/><polygon points="152.74,680.43,156.74,671.43,152.74,675.43,148.74,671.43,152.74,680.43" fill="#181818" style="stroke:#181818;stroke-width:1;stroke-linejoin:miter;stroke-miterlimit:10;"/><text x="153.74" y="646.787" fill="#000" font-size="13" textLength="110.5">Сопоставляется</text><text x="144.517" y="623.873" fill="#000" font-size="13">1</text><text x="127.888" y="669.782" fill="#000" font-size="13" textLength="24.807">0..1</text></g><?plantuml-src dLP1Rn9H4BxpAruurHf8ENZXO6BqOjJ4s8lNXQu6fM0A7cfZGajYOsmaQMZIjAa4ctWpMMgnIClo5-Rz8x-PNM3VsmMB1mhxPkQRUTzyCzlQsrBbdRFbRAfYsQdL7jJhMwN2-xhxk5Yjh9S-k6ejbHABedFgK7idfTHTEYEVRgYl6tbLGq3bjPosoTDxvENL8wVkoabND-5tmsSRRh6qwPJ3y3PrpQEktjCDe0x9kyVk4LZ3r3DCtsb0u-b9IiuwvEjTlKy3hWMX1vCgy7SAjNB7JF-DnZ3qwHAVQmv5c82pOoGXmEbQDmDu-9pWwIkUsW3luNVByZz2AG6MJnSefw6_i4UXMYqRzdEzoxZqYmQ6_PYkWDqGYo-V3jEEodpKwarzFqwx564hiMCHXq5UbIhrqEmX4oga4R3xdFVbiwTc6oGb8_oUk1ds4wO6jEp31vS2c6zoV8Jm0GVgJrQ7Vo3Zo1R97ErqkQq0v_k5EZAq4WObQSnIop9zFvIBZz1v4LISYYYjjcRa_2Becod8XFunZIF1yj3lFl_UIMgHaU8OrZEh6ntgn6U5JkFqlt1VFN6tSmzDPk9LIn93dN4VIMlwp9cOmnnr8qJD20YLYbiEqHAUu2QJmIGar9h0JCxI13DwQH-QMWYamyhTmoW6twP43V7AM0RJr9UprZ-u2yesUFc957vaxhs5hCMAIwIk7Uu8Z9vkxAHkoPTbkzrcJvYbhcGU0nQRIQhaazbS-FG7gtr5DbvyrITiia00TFb_DpcMBUI3CBODhL6t-uQ8zM9rovrjZ7cpEwagONQP_w7CjimjDBUez2M8jf7jDoIiLyBwQAQXvyvskUfiv5MryCOjrcSzwl4uyLr23xv8w6E0oNKdOpgvQV1EKUbSMgrcClZEPbVJ2M-TlCAGSBNGGJGeaxaltqbx3Z71orislFxCRLikLZWQ2uTeiZw8HQzbimnW3Ceyfscd5w6OxSwhI2_avZ5YOYXpzbq8DPuHmlzUC2YUMty1?></g></svg>